<?xml version="1.0" encoding="utf-8"?>
<!-- Generator: Adobe Illustrator 18.1.1, SVG Export Plug-In . SVG Version: 6.00 Build 0)  -->
<svg version="1.1" id="Layer_1" xmlns="http://www.w3.org/2000/svg" xmlns:xlink="http://www.w3.org/1999/xlink" x="0px" y="0px"
	 viewBox="0 0 1000 700" enable-background="new 0 0 1000 700" xml:space="preserve">
<path display="none" fill="#58595B" d="M841,1133.6c-96.4,0-174.5-78.1-174.5-174.5c0-2.5,0.1-5,0.2-7.5h-53.3
	c-0.1,2.5-0.2,5-0.2,7.5c0,110.5,89.5,200,200,200c84.5,0,156.7-52.4,186-126.4C971.5,1092.3,911.1,1133.6,841,1133.6z"/>
<g>
	<g>
		<g>
			<path d="M712,158.1c72.2,0,129.9,22.6,171.8,67c46.2,49.2,71.5,124.5,75.5,224.5C994.7,164.2,852.5,78,585,177.1
				C631.3,164.4,673.7,158.1,712,158.1z"/>
			<path fill="#04733B" d="M929.4,529.4c28.3-457.1-305-452.3-894-12.1C35.4,517.2,838-10.3,929.4,529.4z"/>
			<path fill="#ED2024" d="M904.2,529.4c-109-294.8-346.9-245.1-827.1-4C77.1,525.3,724,210.9,904.2,529.4z"/>
			<path d="M169.3,529.4c0,0,552.8-248.9,677.3,0C721.7,426.5,567.8,445.6,169.3,529.4z"/>
		</g>
	</g>
</g>
</svg>
